<svg width="512" height="512" viewBox="0 0 512 512" fill="none" xmlns="http://www.w3.org/2000/svg">
    <circle cx="256" cy="256" r="256" fill="white"/>
    <path fill-rule="evenodd" clip-rule="evenodd" d="M48.4168 405.849C17.9544 363.724 0 311.959 0 256C0 114.615 114.615 0 256 0C397.385 0 512 114.615 512 256C512 396.334 399.082 510.295 259.148 511.981C237.763 488.669 233.293 448.297 234.066 428.289C185.072 442.216 146.906 380.467 154.82 373.248C157.464 370.837 160.2 368.589 162.827 366.431C168.767 361.552 174.155 357.126 176.681 352.28C190.248 318.122 210.583 299.274 225.825 290.907C232.157 287.431 234.824 280.066 234.066 272.882V253.813C257.522 255.932 270.814 268.613 293.557 290.31C304.172 300.438 316.847 312.53 333.575 326.429C341.589 333.087 351.768 336.554 362.187 336.554H379.208L349.917 292.508C422.557 295.03 455.624 246.894 464.666 218.512C465.535 215.782 464.128 212.915 461.53 211.709L391.28 179.093C382.207 152.407 359.924 142.622 349.917 141.065L343.913 79.0203L312.378 110.612C309.836 113.158 305.519 112.268 304.192 108.925L281.201 51L201.811 261.152C188.44 297.089 157.21 322.398 123.623 340.894C91.9018 358.361 67.21 381.533 48.4168 405.849ZM256 512C257.051 512 258.1 511.994 259.148 511.981L259.165 512H256Z" fill="black"/>
</svg>
