<svg width="55" height="78" viewBox="0 0 55 78" fill="none" xmlns="http://www.w3.org/2000/svg">
<path d="M51.2176 71.311H39.67L39.2105 52.3855C39.1739 50.8806 39.4008 49.3947 39.8845 47.9691L44.7381 33.6638C45.0869 32.6356 45.2288 31.5648 45.16 30.4815L44.4474 19.272C44.4592 19.2627 44.4718 19.2529 44.4835 19.2436C45.6705 18.3051 46.3343 16.8436 46.2595 15.3337C46.2054 14.2448 46.1113 12.7042 45.9704 11.5485C45.9577 11.4451 45.9318 11.3439 45.8931 11.2473C45.8201 11.0648 45.7291 10.8802 45.6185 10.692L45.6563 10.6474C45.9635 10.286 46.1471 9.8264 46.1736 9.3533C46.2852 7.3601 46.5147 2.55559 46.2394 0.994869C46.175 0.630132 45.9463 0.315162 45.6193 0.141141C45.2921 -0.0330395 44.9033 -0.0465245 44.5647 0.103897C44.0948 0.312754 43.2795 0.799176 41.6234 2.60359C41.6092 2.61836 41.5953 2.63345 41.5818 2.64886C40.6407 3.67693 39.7077 4.82235 38.998 5.72665H34.0313C33.3218 4.82235 32.3887 3.67709 31.4478 2.64919C31.4339 2.63313 31.4196 2.61756 31.4048 2.60231C29.7494 0.798694 28.9342 0.312433 28.4646 0.103737C28.1262 -0.046685 27.7372 -0.032879 27.4101 0.140981C27.0829 0.314841 26.8543 0.629811 26.7899 0.994548C26.5143 2.5564 26.7442 7.36026 26.8557 9.35314C26.8822 9.8264 27.066 10.2862 27.3731 10.6475L27.4109 10.6918C27.3004 10.88 27.2092 11.0645 27.1362 11.247C27.0975 11.3438 27.0715 11.4451 27.059 11.5485C26.918 12.7043 26.8241 14.2448 26.77 15.3337C26.7125 16.4923 27.0916 17.6215 27.8067 18.5088L24.8055 24.0103L15.696 27.1498C9.38177 29.3258 4.6524 34.7434 3.35303 41.2883C1.69678 49.6321 -0.209093 61.0841 0.116954 68.2576C0.203964 70.1723 0.709652 72.0414 1.57975 73.663C2.66321 75.6824 4.50359 78.0002 9.15751 78.0002H51.2178C53.0618 78.0002 54.5622 76.4998 54.5622 74.6557C54.5622 72.8117 53.0617 71.311 51.2176 71.311ZM29.6362 4.23608C29.647 4.24844 29.6582 4.26048 29.6694 4.27236C30.7887 5.495 31.9232 6.93147 32.5014 7.68133C32.7793 8.04173 33.225 8.20403 33.6497 8.13436H39.3799C39.8052 8.20403 40.2503 8.04157 40.5282 7.68133C41.1093 6.92777 42.2524 5.48039 43.3771 4.25374C43.3792 4.25133 43.3814 4.24908 43.3835 4.24683C43.5946 4.01647 43.7874 3.81323 43.9633 3.63359C43.9572 5.23894 43.8733 7.34838 43.7738 9.14429L43.1785 9.84454C42.7999 10.2899 42.7959 10.9429 43.169 11.3931C43.397 11.6679 43.527 11.874 43.6013 12.0188C43.7221 13.083 43.8054 14.4601 43.8547 15.453C43.8911 16.187 43.5679 16.8978 42.9903 17.3544C41.6182 18.4391 39.0221 20.4071 37.0518 21.3999C36.7157 21.5692 36.3142 21.5692 35.9782 21.3999C34.0074 20.4068 31.4116 18.4391 30.0398 17.3544C29.462 16.8977 29.139 16.1868 29.1753 15.453C29.2246 14.4601 29.3077 13.0832 29.4285 12.0188C29.5028 11.8739 29.6328 11.6676 29.8608 11.3931C30.234 10.9431 30.2302 10.29 29.8515 9.84454L29.2562 9.14429C29.1565 7.34838 29.0726 5.23894 29.0665 3.63359C29.2394 3.8105 29.4288 4.0102 29.6362 4.23608ZM51.2176 75.592H9.15734C5.98468 75.592 4.71774 74.4181 3.70155 72.5245C3.00081 71.2185 2.59305 69.7053 2.52242 68.1483C2.20729 61.2159 4.08459 49.9704 5.71498 41.7572C6.84804 36.0494 10.9732 31.3245 16.4806 29.4263L26.0314 26.1349C26.3152 26.0371 26.5523 25.8368 26.696 25.5732L29.6726 20.1167C31.2923 21.3474 33.2476 22.7206 34.8944 23.5504C35.4018 23.806 35.9582 23.9339 36.5148 23.9339C37.0714 23.9339 37.628 23.8061 38.1353 23.5504C39.3878 22.9193 40.8188 21.9733 42.1454 21.0149L42.7569 30.634C42.8057 31.402 42.7051 32.1612 42.4578 32.89L37.6042 47.1954C37.0293 48.8895 36.76 50.6554 36.8035 52.4437L37.2615 71.3108H35.5763L32.933 51.4861C32.9296 51.4598 32.9251 51.4336 32.9198 51.4076L29.4951 34.3909C29.3639 33.7391 28.7297 33.3169 28.0771 33.4481C27.4251 33.5792 27.0031 34.214 27.1343 34.8661L30.5513 51.8438L30.8956 54.4263C29.7216 51.6509 27.7441 49.2598 25.1236 47.5358C24.5684 47.1706 23.8216 47.3244 23.4559 47.88C23.0905 48.4355 23.2445 49.1821 23.8001 49.5477C27.3251 51.8668 29.4747 55.6137 29.6975 59.8272C29.9202 64.041 28.1777 67.9935 24.9168 70.6714L24.138 71.311H20.8861C16.8028 71.311 12.8222 70.1545 9.37455 67.9665C8.813 67.61 8.06908 67.7766 7.71285 68.338C7.35662 68.8994 7.52277 69.6433 8.08433 69.9997C11.9182 72.4328 16.3452 73.7188 20.8861 73.7188H51.2179C51.7342 73.7188 52.1543 74.139 52.1543 74.6553C52.1543 75.1715 51.7339 75.592 51.2176 75.592ZM33.1468 71.311H27.7716C30.0941 68.9177 31.5543 65.8939 31.9877 62.617L33.1468 71.311Z" fill="#E67E22"/>
</svg>
