<svg width="149" height="149" viewBox="0 0 149 149" fill="none" xmlns="http://www.w3.org/2000/svg">
    <circle cx="74.5" cy="74.5" r="73" stroke="#E67E22" stroke-width="3"/>
    <path d="M95.5709 77.8376C90.3511 69.0024 81.4612 63.7269 71.7899 63.7269C62.1185 63.7269 53.2286 69.0024 48.0097 77.8376L35.432 99.127C33.3451 102.659 32.3822 106.74 32.6469 110.925C32.9115 115.112 34.3797 119.011 36.8922 122.202C39.4065 125.391 42.7289 127.571 46.4999 128.506C50.2709 129.442 54.1366 129.042 57.6784 127.353L57.9156 127.239C66.8276 123.073 77.0114 123.112 85.9004 127.353C88.1935 128.447 90.6228 129 93.0743 129C94.4071 129 95.7479 128.836 97.0763 128.507C100.847 127.573 104.17 125.393 106.685 122.203C109.198 119.014 110.667 115.115 110.933 110.927C111.198 106.74 110.236 102.66 108.149 99.126L95.5709 77.8376Z" fill="#E67E22"/>
    <path d="M38.8199 77.8097C42.5617 76.2503 45.4043 72.9788 46.8239 68.5972C48.1753 64.4279 48.0647 59.7208 46.5115 55.3421C44.9574 50.9663 42.1307 47.3942 38.5517 45.2827C34.7922 43.0655 30.6619 42.7044 26.9263 44.2667C19.4108 47.4019 15.9619 57.4786 19.2391 66.7344C21.857 74.1013 27.9626 78.7517 34.1355 78.7517C35.7117 78.7517 37.2924 78.4483 38.8199 77.8097Z" fill="#E67E22"/>
    <path d="M63.2248 61.1304C72.6201 61.1304 80.2639 51.6817 80.2639 40.0676C80.2639 28.4507 72.6201 19 63.2248 19C53.8305 19 46.1875 28.4507 46.1875 40.0676C46.1875 51.6817 53.8305 61.1304 63.2248 61.1304Z" fill="#E67E22"/>
    <path d="M92.6513 66.3051H92.6522C94.0975 66.8256 95.5719 67.0743 97.0401 67.0743C103.892 67.0743 110.569 61.6634 113.117 53.3477C114.584 48.5609 114.488 43.4995 112.845 39.0968C111.127 34.4877 107.942 31.1422 103.876 29.6759C99.8093 28.2096 95.4117 28.8213 91.492 31.3967C87.7475 33.8568 84.8783 37.8485 83.4128 42.6353C80.3196 52.7332 84.4641 63.3515 92.6513 66.3051Z" fill="#E67E22"/>
    <path d="M128.534 63.8469L128.531 63.844C122.052 58.6511 112.362 60.9019 106.929 68.8642C101.501 76.8303 102.35 87.5398 108.82 92.7366C111.179 94.6331 113.967 95.5396 116.82 95.5396C121.793 95.5396 126.967 92.7856 130.425 87.7213C135.852 79.7552 135.004 69.0456 128.534 63.8469Z" fill="#E67E22"/>
</svg>
