<svg width="94" height="78" viewBox="0 0 94 78" fill="none" xmlns="http://www.w3.org/2000/svg">
<path d="M92.5134 8.49778C91.9651 7.74767 91.1202 7.26793 90.1951 7.18192L83.1013 6.522L82.3016 4.38929C81.9654 3.49238 81.2122 2.80962 80.2866 2.5631L71.046 0.0988397C70.4282 -0.0658415 69.7661 -0.0237277 69.1725 0.217633C69.1479 0.227168 69.1235 0.237497 69.0996 0.248225L59.8233 4.22441C59.3475 4.42843 59.0118 4.86466 58.9363 5.37658C58.8608 5.88871 59.0565 6.40321 59.4534 6.73575L61.6284 8.55837L59.7011 13.2129C57.1886 19.2809 51.3236 23.338 44.7596 23.5491L20.9486 24.3147L18.6174 22.3167C16.8522 20.8038 16.2104 18.3228 17.0199 16.1432L17.6728 14.3846C18.3089 12.6724 17.6152 10.7799 16.023 9.88436C15.1269 9.37999 14.052 9.27311 13.0739 9.59115C12.0957 9.90919 11.2892 10.6277 10.8605 11.5626L10.467 12.4207C8.10264 17.5797 8.57345 23.534 11.6511 28.2331C9.79157 29.7633 8.23932 31.8473 7.78679 34.6529C6.92087 40.0218 6.5643 50.2245 6.42882 55.8282C6.4022 56.9274 5.73652 57.9296 4.73254 58.3811C2.9425 59.1866 1.68127 60.8237 1.35826 62.7599L0.0660438 70.5135C-0.167768 71.9171 0.22556 73.345 1.14551 74.431C2.06546 75.5169 3.40933 76.1396 4.83246 76.1396H9.42486C10.2195 76.1396 10.9793 75.8001 11.5091 75.208C12.0391 74.6158 12.2926 73.8234 12.2048 73.0339C11.9759 70.9737 10.6499 69.2155 8.76832 68.4165C9.89825 66.4203 11.6587 64.8778 13.8196 64.0132C17.2817 62.6284 20.0701 60.0114 21.6717 56.6441L25.6105 48.3625C26.8755 47.773 31.1836 46.1585 37.4475 47.9486C39.9833 48.673 42.3877 49.4823 44.7131 50.265C49.0536 51.7259 52.643 52.9313 55.3814 53.0056C55.7893 59.9665 56.0702 67.965 55.4772 70.3361C55.0433 72.0711 55.2352 73.6287 56.0475 74.9654C57.4164 77.2179 60.007 77.8903 60.2978 77.9595C60.4109 77.9865 60.5267 78 60.6429 78H64.0786C64.9532 78 65.7544 77.5975 66.2764 76.8957C66.7985 76.1939 66.9538 75.3109 66.7025 74.4732C66.1092 72.495 64.7331 70.8957 62.917 70.0127L67.7854 52.8677C70.2725 50.2781 71.9838 47.0646 72.7443 43.5485L77.3963 22.0412C79.3283 21.5642 82.0427 21.0499 85.3328 20.54C88.8364 19.9969 91.7019 17.302 92.4631 13.8339L93.062 11.1055C93.2615 10.1986 93.0613 9.24788 92.5134 8.49778ZM68.0756 3.92942L67.7568 9.0397C67.745 9.22603 67.6292 9.31364 67.5343 9.35456C67.4391 9.39568 67.2953 9.41952 67.1525 9.29993L63.225 6.00869L68.0756 3.92942ZM13.176 13.6627L13.5695 12.8045C13.6821 12.5582 13.8846 12.4611 13.9952 12.4253C14.1059 12.3895 14.3268 12.3492 14.5624 12.4817C14.8685 12.6539 15.002 13.0179 14.8796 13.3474L14.2266 15.1063C12.9843 18.4506 13.9696 22.2577 16.6784 24.5795L17.3373 25.1443C16.3746 25.4834 15.2549 25.9492 14.1255 26.5718C11.6249 22.7307 11.2463 17.8729 13.176 13.6627ZM90.1518 10.467L89.5529 13.1955C89.0531 15.4714 87.1739 17.2396 84.8765 17.5958C80.8941 18.2132 77.8192 18.8187 75.7365 19.3951C74.5234 19.7313 73.1835 19.5658 72.0603 18.942C70.0903 17.8477 68.8617 17.1119 68.8497 17.1045C68.1437 16.681 67.2288 16.9104 66.8056 17.6158C66.3823 18.3214 66.6111 19.2364 67.3167 19.6597C67.368 19.6905 68.5957 20.4261 70.6136 21.5469C71.7473 22.1768 72.9868 22.5104 74.2393 22.5444L69.8323 42.9191C69.1652 46.0028 67.6334 48.8121 65.4024 51.0429C65.223 51.2225 65.0921 51.445 65.0227 51.6894L59.6749 70.523C59.4504 71.3136 59.9087 72.137 60.6989 72.3627L60.9005 72.4203C62.2164 72.7963 63.2587 73.7566 63.7432 75.0204H60.8529C60.5527 74.9245 59.8378 74.6583 59.2265 74.142C58.309 73.3665 58.0362 72.3869 58.3683 71.059C59.5563 66.3066 57.9025 45.9122 57.71 43.6023C57.6405 42.7668 56.8944 42.1502 56.0553 42.2459C55.2456 42.3383 54.6782 43.0979 54.7458 43.9102C54.8721 45.4315 55.035 47.5842 55.1955 50.0191C52.8947 49.8743 49.3643 48.6865 45.6639 47.4412C43.4161 46.6845 40.8682 45.8272 38.2663 45.0838C33.6658 43.7694 29.9143 44.0675 27.3737 44.6557L28.4802 42.3295C28.8306 41.5927 28.5682 40.6805 27.8423 40.3083C27.091 39.9231 26.1761 40.2368 25.8159 40.9936L18.9809 55.3648C17.7026 58.0525 15.4767 60.1415 12.7133 61.247C9.45883 62.5488 6.90637 65.0398 5.52535 68.2616L5.34716 68.6777C5.24546 68.9153 5.19122 69.174 5.21526 69.4312C5.27307 70.0526 5.69441 70.549 6.25639 70.7244L7.35115 71.0665C8.3158 71.3681 9.02855 72.1774 9.2135 73.1603H4.8863C4.45741 73.1603 4.03091 73.0347 3.6938 72.7695C3.1491 72.3409 2.89562 71.6652 3.00607 71.0037L4.29809 63.2504C4.45681 62.2989 5.0766 61.4947 5.95603 61.0988C7.99895 60.1797 9.35414 58.1393 9.40857 55.9007C9.51604 51.4502 9.85991 40.5167 10.7292 35.1279C11.6529 29.4004 19.6132 27.518 20.5932 27.3076L44.8561 26.5275C52.5876 26.279 59.4953 21.5002 62.455 14.353L64.0233 10.5651L65.2399 11.5846C66.2136 12.3993 67.5434 12.5941 68.7111 12.0924C69.8778 11.5912 70.6519 10.4928 70.7312 9.22563L71.1074 3.19858L79.5123 5.43558L79.9362 6.56571L78.5059 6.66106C77.707 6.7143 77.0476 7.36646 77.0572 8.16703C77.0671 8.9948 77.7407 9.64141 78.5455 9.64141C78.5788 9.64141 78.6124 9.64022 78.6462 9.63803C80.8887 9.48845 83.1397 9.51805 85.3774 9.72623L89.92 10.1488C90.0175 10.1579 90.0759 10.2117 90.1079 10.2554C90.1391 10.2991 90.1727 10.3713 90.1518 10.467Z" fill="#2270E6"/>
</svg>
